<?xml version="1.0" encoding="utf-8"?>
<!-- Generator: Adobe Illustrator 19.1.0, SVG Export Plug-In . SVG Version: 6.00 Build 0)  -->
<svg version="1.1" id="Layer_1" xmlns="http://www.w3.org/2000/svg" xmlns:xlink="http://www.w3.org/1999/xlink" x="0px" y="0px"
	 width="38px" height="38px" viewBox="0 0 38 38" style="enable-background:new 0 0 38 38;" xml:space="preserve">
<style type="text/css">
	.st0{fill:#FFFFFF;}
</style>
<g transform="translate(0,-952.36216)">
	<path class="st0" d="M4.9,956.4c-0.5,0-0.9,0.4-0.9,0.9v11.1c0,0.5,0.4,0.9,0.9,0.9H16c0.5,0,0.9-0.4,0.9-0.9v-11.1
		c0-0.5-0.4-0.9-0.9-0.9H4.9z M22,956.4c-0.5,0-0.9,0.4-0.9,0.9v11.1c0,0.5,0.4,0.9,0.9,0.9h11.1c0.5,0,0.9-0.4,0.9-0.9v-11.1
		c0-0.5-0.4-0.9-0.9-0.9H22z M5.8,958.1h9.3v9.3H5.8V958.1z M22.9,958.1h9.3v9.3h-9.3V958.1z M4.9,973.5c-0.5,0-0.9,0.4-0.9,0.9
		v11.1c0,0.5,0.4,0.9,0.9,0.9H16c0.5,0,0.9-0.4,0.9-0.9v-11.1c0-0.5-0.4-0.9-0.9-0.9H4.9z M22,973.5c-0.5,0-0.9,0.4-0.9,0.9v11.1
		c0,0.5,0.4,0.9,0.9,0.9h11.1c0.5,0,0.9-0.4,0.9-0.9v-11.1c0-0.5-0.4-0.9-0.9-0.9H22z M5.8,975.3h9.3v9.3H5.8V975.3z M22.9,975.3
		h9.3v9.3h-9.3V975.3z"/>
</g>
</svg>
