<?xml version="1.0" encoding="utf-8"?>
<!-- Generator: Adobe Illustrator 19.1.0, SVG Export Plug-In . SVG Version: 6.00 Build 0)  -->
<svg version="1.1" id="Layer_1" xmlns="http://www.w3.org/2000/svg" xmlns:xlink="http://www.w3.org/1999/xlink" x="0px" y="0px"
	 width="38px" height="38px" viewBox="0 0 38 38" style="enable-background:new 0 0 38 38;" xml:space="preserve">
<style type="text/css">
	.st0{fill:#FFFFFF;}
</style>
<g>
	<path class="st0" d="M23.5,4h-20c-0.6,0-1,0.5-1,1v20c0,0.5,0.4,1,1,1h20c0.5,0,1-0.5,1-1V5C24.5,4.5,24,4,23.5,4z M22.8,24.2H4.3
		V5.7h18.5V24.2z"/>
	<path class="st0" d="M34.5,12h-20c-0.6,0-1,0.5-1,1v20c0,0.5,0.4,1,1,1h20c0.5,0,1-0.5,1-1V13C35.5,12.5,35,12,34.5,12z M33.8,32.3
		H15.3V13.8h18.5V32.3z"/>
</g>
</svg>
