<?xml version="1.0" encoding="utf-8"?>
<!-- Generator: Adobe Illustrator 19.1.0, SVG Export Plug-In . SVG Version: 6.00 Build 0)  -->
<svg version="1.1" id="Layer_1" xmlns="http://www.w3.org/2000/svg" xmlns:xlink="http://www.w3.org/1999/xlink" x="0px" y="0px"
	 width="38px" height="38px" viewBox="0 0 38 38" style="enable-background:new 0 0 38 38;" xml:space="preserve">
<style type="text/css">
	.st0{fill:#FFFFFF;}
</style>
<g>
	<path class="st0" d="M36.7,2.5h-8.3c-0.5,0-1,0.5-1,1v31c0,0.5,0.5,1,1,1h8.3c0.5,0,1-0.5,1-1v-31C37.7,3,37.3,2.5,36.7,2.5z
		 M36,33.8h-6.8V4.3H36V33.8z"/>
	<path class="st0" d="M23.2,10.5h-8.3c-0.5,0-1,0.5-1,1v23c0,0.5,0.5,1,1,1h8.3c0.5,0,1-0.5,1-1v-23C24.2,11,23.7,10.5,23.2,10.5z
		 M22.4,33.8h-6.8V12.3h6.8V33.8z"/>
	<path class="st0" d="M9.6,20.5H1.3c-0.5,0-1,0.5-1,1v13c0,0.5,0.5,1,1,1h8.3c0.5,0,1-0.5,1-1v-13C10.6,21,10.1,20.5,9.6,20.5z
		 M8.8,33.8H2V22.3h6.8V33.8z"/>
</g>
</svg>
