<?xml version="1.0" encoding="utf-8"?>
<!-- Generator: Adobe Illustrator 19.1.0, SVG Export Plug-In . SVG Version: 6.00 Build 0)  -->
<svg version="1.1" id="Layer_1" xmlns="http://www.w3.org/2000/svg" xmlns:xlink="http://www.w3.org/1999/xlink" x="0px" y="0px"
	 width="38px" height="38px" viewBox="0 0 38 38" style="enable-background:new 0 0 38 38;" xml:space="preserve">
<style type="text/css">
	.st0{fill:#FFFFFF;}
</style>
<g>
	<path class="st0" d="M19,4C10.7,4,4,10.7,4,19c0,8.3,6.7,15,15,15s15-6.7,15-15C34,10.7,27.3,4,19,4z M19,32.3
		c-7.3,0-13.3-5.9-13.3-13.3c0-7.3,5.9-13.3,13.3-13.3S32.3,11.7,32.3,19C32.3,26.3,26.3,32.3,19,32.3z"/>
	<path class="st0" d="M19,12.9c-3.4,0-6.2,2.8-6.2,6.1s2.8,6.2,6.2,6.2s6.2-2.8,6.2-6.2S22.4,12.9,19,12.9z M19,23.4
		c-2.4,0-4.4-2-4.4-4.4s2-4.4,4.4-4.4s4.4,2,4.4,4.4S21.4,23.4,19,23.4z"/>
	<rect x="18.1" y="5.2" class="st0" width="1.8" height="9"/>
	<rect x="24.1" y="7.3" transform="matrix(0.766 0.6428 -0.6428 0.766 13.4602 -13.3067)" class="st0" width="1.8" height="9"/>
	<rect x="27.3" y="12.9" transform="matrix(0.1736 0.9848 -0.9848 0.1736 40.4221 -13.4203)" class="st0" width="1.8" height="9"/>
	<rect x="21.3" y="23.3" transform="matrix(-0.9397 0.342 -0.342 -0.9397 52.5604 46.3043)" class="st0" width="1.8" height="9"/>
</g>
</svg>
