<?xml version="1.0" encoding="utf-8"?>
<!-- Generator: Adobe Illustrator 19.1.0, SVG Export Plug-In . SVG Version: 6.00 Build 0)  -->
<svg version="1.1" id="Layer_1" xmlns="http://www.w3.org/2000/svg" xmlns:xlink="http://www.w3.org/1999/xlink" x="0px" y="0px"
	 width="44px" height="38px" viewBox="0 0 44 38" style="enable-background:new 0 0 44 38;" xml:space="preserve">
<style type="text/css">
	.st0{fill:#FFFFFF;}
</style>
<g>
	<path class="st0" d="M11.6,12.9H1.3c-0.5,0-1,0.5-1,1v10.3c0,0.5,0.5,1,1,1h10.3c0.5,0,1-0.5,1-1V13.9
		C12.6,13.3,12.1,12.9,11.6,12.9z M10.8,23.4H2v-8.8h8.8V23.4z"/>
	<path class="st0" d="M27.2,12.9H16.8c-0.5,0-1,0.5-1,1v10.3c0,0.5,0.5,1,1,1h10.3c0.5,0,1-0.5,1-1V13.9
		C28.2,13.3,27.7,12.9,27.2,12.9z M26.4,23.4h-8.8v-8.8h8.8V23.4z"/>
	<path class="st0" d="M42.7,12.9H32.4c-0.5,0-1,0.5-1,1v10.3c0,0.5,0.5,1,1,1h10.3c0.5,0,1-0.5,1-1V13.9
		C43.7,13.3,43.3,12.9,42.7,12.9z M42,23.4h-8.8v-8.8H42V23.4z"/>
</g>
</svg>
